<svg xmlns="http://www.w3.org/2000/svg" xmlns:xlink="http://www.w3.org/1999/xlink" preserveAspectRatio="xMidYMid" width="32" height="28" viewBox="0 0 32 28">
  <defs>
    <style>
      .cls-1 {
        fill: #35302d;
        fill-rule: evenodd;
      }
    </style>
  </defs>
  <path d="M29.332,7.875 L24.804,7.875 C24.771,7.785 24.737,7.697 24.687,7.618 L20.243,0.618 C20.007,0.247 19.588,-0.000 19.111,-0.000 C18.375,-0.000 17.778,0.587 17.778,1.312 C17.778,1.567 17.851,1.805 17.979,2.007 L21.705,7.875 L10.295,7.875 L14.021,2.007 C14.149,1.805 14.222,1.567 14.222,1.312 C14.222,0.587 13.625,-0.000 12.889,-0.000 C12.412,-0.000 11.993,0.247 11.757,0.618 L7.313,7.618 C7.263,7.697 7.229,7.785 7.196,7.875 L2.668,7.875 C1.195,7.875 0.001,9.050 0.001,10.500 L0.001,12.250 C0.001,13.493 0.882,14.529 2.060,14.800 L5.442,26.118 C5.767,27.205 6.790,28.000 8.001,28.000 L24.000,28.000 C25.210,28.000 26.233,27.205 26.558,26.118 L29.940,14.800 C31.118,14.529 31.999,13.493 31.999,12.250 L31.999,10.500 C31.999,9.050 30.805,7.875 29.332,7.875 ZM2.668,10.500 L29.332,10.500 L29.332,12.250 L2.668,12.250 L2.668,10.500 ZM24.000,25.375 L8.000,25.377 L4.863,14.875 L27.137,14.875 L24.000,25.375 Z" class="cls-1"/>
</svg>
