<svg xmlns="http://www.w3.org/2000/svg" xmlns:xlink="http://www.w3.org/1999/xlink" preserveAspectRatio="xMidYMid" width="32" height="27" viewBox="0 0 32 27">
  <defs>
    <style>
      .cls-1 {
        fill: #483f3a;
        fill-rule: evenodd;
      }
    </style>
  </defs>
  <path d="M32.000,13.500 C32.000,12.217 31.128,11.142 29.929,10.763 C29.780,7.480 29.373,4.206 28.688,0.971 C28.590,0.505 28.217,0.139 27.736,0.036 C27.646,0.016 27.554,0.006 27.463,0.006 C27.074,0.006 26.701,0.182 26.462,0.490 C23.341,4.523 18.000,6.750 13.000,6.750 L7.000,6.750 C3.134,6.750 -0.000,9.772 -0.000,13.500 C-0.000,17.228 3.134,20.250 7.000,20.250 C7.000,22.756 8.057,25.111 9.925,26.816 C10.066,26.945 10.258,27.012 10.453,26.999 C10.648,26.987 10.829,26.896 10.952,26.749 L12.591,24.789 C12.814,24.521 12.795,24.136 12.545,23.891 C11.557,22.925 11.000,21.628 11.000,20.250 L13.000,20.250 C18.000,20.250 23.341,22.476 26.462,26.509 C26.701,26.818 27.074,26.994 27.463,26.994 C27.554,26.994 27.646,26.984 27.736,26.965 C28.218,26.861 28.590,26.495 28.688,26.029 C29.373,22.794 29.780,19.520 29.929,16.237 C31.128,15.858 32.000,14.783 32.000,13.500 ZM7.000,17.357 C4.794,17.357 3.000,15.627 3.000,13.500 C3.000,11.373 4.794,9.643 7.000,9.643 L11.000,9.643 L11.000,17.357 L7.000,17.357 ZM26.349,22.158 C23.029,19.346 18.593,17.624 14.000,17.402 L14.000,9.598 C18.593,9.375 23.029,7.654 26.349,4.841 C27.227,10.600 27.227,16.400 26.349,22.158 Z" class="cls-1"/>
</svg>
