<svg xmlns="http://www.w3.org/2000/svg" xmlns:xlink="http://www.w3.org/1999/xlink" preserveAspectRatio="xMidYMid" width="21" height="21" viewBox="0 0 21 21">
  <defs>
    <style>
      .cls-1 {
        fill: #857771;
        fill-rule: evenodd;
      }
    </style>
  </defs>
  <path d="M10.500,21.000 C4.701,21.000 -0.000,16.299 -0.000,10.500 C-0.000,4.701 4.701,-0.000 10.500,-0.000 C16.299,-0.000 21.000,4.701 21.000,10.500 C21.000,16.299 16.299,21.000 10.500,21.000 ZM10.500,2.032 C5.831,2.032 2.032,5.831 2.032,10.500 C2.032,15.169 5.831,18.968 10.500,18.968 C15.169,18.968 18.968,15.169 18.968,10.500 C18.968,5.831 15.169,2.032 10.500,2.032 ZM15.242,11.516 L9.484,11.516 L9.484,5.081 C9.484,4.519 9.939,4.064 10.500,4.064 C11.061,4.064 11.516,4.519 11.516,5.081 L11.516,9.484 L15.242,9.484 C15.803,9.484 16.258,9.939 16.258,10.500 C16.258,11.061 15.803,11.516 15.242,11.516 Z" class="cls-1"/>
</svg>
