<svg xmlns="http://www.w3.org/2000/svg" xmlns:xlink="http://www.w3.org/1999/xlink" preserveAspectRatio="xMidYMid" width="23" height="21" viewBox="0 0 23 21">
  <defs>
    <style>
      .cls-1 {
        fill: #857771;
        fill-rule: evenodd;
      }
    </style>
  </defs>
  <path d="M16.531,2.100 C18.909,2.100 20.844,3.984 20.844,6.300 C20.844,12.487 14.063,17.074 11.500,18.585 C8.937,17.074 2.156,12.487 2.156,6.300 C2.156,3.984 4.091,2.100 6.469,2.100 C7.776,2.100 8.998,2.670 9.823,3.664 C10.232,4.158 10.849,4.444 11.500,4.444 L11.500,4.444 C12.151,4.444 12.768,4.158 13.177,3.664 C14.001,2.670 15.224,2.100 16.531,2.100 M16.531,-0.000 C14.498,-0.000 12.685,0.915 11.500,2.344 C10.314,0.915 8.502,-0.000 6.469,-0.000 C2.896,-0.000 -0.000,2.820 -0.000,6.300 C-0.000,14.700 10.062,20.300 11.500,21.000 C12.937,20.300 23.000,14.700 23.000,6.300 C23.000,2.820 20.104,-0.000 16.531,-0.000 L16.531,-0.000 Z" class="cls-1"/>
</svg>
