<svg xmlns="http://www.w3.org/2000/svg" xmlns:xlink="http://www.w3.org/1999/xlink" preserveAspectRatio="xMidYMid" width="20" height="20" viewBox="0 0 20 20">
  <defs>
    <style>
      .cls-1 {
        fill: #706661;
        fill-rule: evenodd;
      }
    </style>
  </defs>
  <path d="M11.250,-0.001 C5.037,-0.001 -0.000,4.477 -0.000,9.999 C-0.000,12.536 1.164,14.800 2.985,16.290 C2.758,17.163 2.595,18.058 2.505,18.969 C2.453,19.484 2.829,19.943 3.345,19.994 C3.376,19.998 3.407,19.999 3.439,19.999 C3.915,19.999 4.322,19.638 4.370,19.154 C4.431,18.541 4.531,17.936 4.662,17.341 C5.713,17.838 6.885,18.124 8.125,18.124 C12.612,18.124 16.250,14.486 16.250,9.999 C16.250,7.283 17.776,4.971 20.000,3.749 C17.937,1.493 14.775,-0.001 11.250,-0.001 ZM14.375,9.999 C14.375,13.445 11.571,16.249 8.125,16.249 C7.062,16.249 6.062,15.981 5.185,15.511 C6.244,12.495 8.208,9.842 10.857,7.949 C11.068,7.799 11.197,7.577 11.237,7.340 C11.277,7.104 11.226,6.852 11.075,6.642 C10.925,6.431 10.703,6.301 10.466,6.262 C10.229,6.222 9.978,6.273 9.767,6.424 C6.968,8.424 4.850,11.180 3.622,14.323 C2.543,13.199 1.875,11.677 1.875,9.999 C1.875,5.519 6.080,1.874 11.250,1.874 C13.368,1.874 15.392,2.503 17.041,3.643 C15.358,5.314 14.375,7.591 14.375,9.999 Z" class="cls-1"/>
</svg>
