<svg xmlns="http://www.w3.org/2000/svg" width="36" height="32" viewBox="0 0 36 32">
  <defs>
    <style>
      .cls-1 {
        fill: #fff;
        fill-rule: evenodd;
      }
    </style>
  </defs>
  <path id="Basket" class="cls-1" d="M209,799h-5.095a1.586,1.586,0,0,0-.131-0.294l-5-8a1.5,1.5,0,0,0-2.547,1.588L200.418,799H187.582l4.192-6.706a1.5,1.5,0,0,0-2.547-1.588l-5,8a1.526,1.526,0,0,0-.132.294H179a3,3,0,0,0-3,3v2a3,3,0,0,0,2.317,2.915l3.8,12.934A3,3,0,0,0,185,822h18a3,3,0,0,0,2.879-2.151l3.8-12.934A3,3,0,0,0,212,804v-2A3,3,0,0,0,209,799Zm-30,3h30v2H179v-2Zm24,17-18,0-3.529-12h25.06Z" transform="translate(-176 -790)"/>
</svg>
