<svg xmlns="http://www.w3.org/2000/svg" width="24" height="20" viewBox="0 0 32 28">
  <defs>
    <style>
      .cls-1 {
        fill: #857771;
        fill-rule: evenodd;
      }
    </style>
  </defs>
  <path id="Bullhorn" class="cls-1" d="M378,806a2.989,2.989,0,0,0-2.071-2.838,64.934,64.934,0,0,0-1.24-10.155,1.251,1.251,0,0,0-.952-0.97,1.217,1.217,0,0,0-.274-0.03,1.247,1.247,0,0,0-1,.5A17.1,17.1,0,0,1,359,799h-6a7,7,0,0,0,0,14,9.338,9.338,0,0,0,2.925,6.809,0.7,0.7,0,0,0,1.027-.069l1.639-2.033a0.7,0.7,0,0,0-.046-0.931A5.358,5.358,0,0,1,357,813h2a17.1,17.1,0,0,1,13.462,6.491,1.25,1.25,0,0,0,1,.5,1.218,1.218,0,0,0,.274-0.031,1.249,1.249,0,0,0,.952-0.97,64.934,64.934,0,0,0,1.24-10.155A2.989,2.989,0,0,0,378,806Zm-25,4a4,4,0,0,1,0-8h4v8h-4Zm19.349,4.979A20.421,20.421,0,0,0,360,810.046v-8.092a20.427,20.427,0,0,0,12.349-4.933A61.546,61.546,0,0,1,372.349,814.979Z" transform="translate(-346 -792)"/>
</svg>
