<svg xmlns="http://www.w3.org/2000/svg" xmlns:xlink="http://www.w3.org/1999/xlink" preserveAspectRatio="xMidYMid" width="48" height="48" viewBox="0 0 48 48">
  <defs>
    <style>
      .cls-1 {
        fill: #948782;
        fill-rule: evenodd;
      }
    </style>
  </defs>
  <path d="M24.000,48.000 C10.746,48.000 -0.000,37.254 -0.000,24.000 C-0.000,10.746 10.746,-0.000 24.000,-0.000 C37.254,-0.000 48.000,10.746 48.000,24.000 C48.000,37.254 37.254,48.000 24.000,48.000 ZM24.000,4.500 C13.248,4.500 4.500,13.248 4.500,24.000 C4.500,34.752 13.248,43.500 24.000,43.500 C34.752,43.500 43.500,34.752 43.500,24.000 C43.500,13.248 34.752,4.500 24.000,4.500 ZM27.750,34.500 C27.164,34.500 26.635,34.270 26.234,33.902 L26.229,33.908 L17.229,25.658 C16.765,25.232 16.500,24.631 16.500,24.000 C16.500,23.368 16.765,22.768 17.229,22.342 L26.229,14.092 L26.234,14.097 C26.635,13.730 27.164,13.500 27.750,13.500 C28.992,13.500 30.000,14.508 30.000,15.750 C30.000,16.406 29.714,16.992 29.266,17.402 L29.270,17.408 L22.079,24.000 L29.270,30.592 L29.266,30.597 C29.714,31.008 30.000,31.594 30.000,32.250 C30.000,33.492 28.992,34.500 27.750,34.500 Z" class="cls-1"/>
</svg>
