<svg xmlns="http://www.w3.org/2000/svg" width="21" height="28" viewBox="0 0 24 32">
  <defs>
    <style>
      .cls-1 {
        fill: #857771;
        fill-rule: evenodd;
      }
    </style>
  </defs>
  <path id="Notepad" class="cls-1" d="M373,990H351a1,1,0,0,1-1-1V963a3,3,0,0,1,3-3h3v-0.5a1.5,1.5,0,0,1,3,0V960h6v-0.5a1.5,1.5,0,0,1,3,0V960h3a3,3,0,0,1,3,3v26A1,1,0,0,1,373,990Zm-2-27h-3v2h-3v-2h-6v2h-3v-2h-3v4h18v-4Zm0,7H353v17h18V970Zm-4,7H357v-3h10v3Zm0,6H357v-3h10v3Z" transform="translate(-350 -958)"/>
</svg>
